<svg width="163" height="40" viewBox="0 0 163 40" fill="none" xmlns="http://www.w3.org/2000/svg">
<g filter="url(#filter0_d)">
<path d="M4.33 31V0.934999H16.37V6.78H10.385V11.575H16.055V17.35H10.385V31H4.33ZM18.0295 31V0.934999H23.8395V31H18.0295ZM26.2392 31V0.934999H32.2592V25.89H38.4542V31H26.2392ZM40.1503 31V0.934999H52.1903V6.745H46.2753V12.59H51.9453V18.26H46.2753V25.155H52.5753V31H40.1503ZM69.7423 31.28C67.2689 31.28 65.4256 30.58 64.2123 29.18C63.0223 27.78 62.4273 25.7033 62.4273 22.95V0.934999H68.2723V22.705C68.2723 23.6617 68.3656 24.4083 68.5523 24.945C68.7389 25.4817 69.1356 25.75 69.7423 25.75C70.3489 25.75 70.7456 25.4933 70.9323 24.98C71.1189 24.4433 71.2123 23.685 71.2123 22.705V0.934999H77.0573V22.95C77.0573 25.7033 76.4506 27.78 75.2373 29.18C74.0473 30.58 72.2156 31.28 69.7423 31.28ZM79.3544 0.934999H87.2994C89.7027 0.934999 91.4177 1.71667 92.4444 3.28C93.4711 4.82 93.9844 7.08333 93.9844 10.07C93.9844 13.0567 93.5294 15.3083 92.6194 16.825C91.7094 18.3417 90.0761 19.1 87.7194 19.1H85.2694V31H79.3544V0.934999ZM85.6194 13.675C86.3427 13.675 86.8677 13.5467 87.1944 13.29C87.5444 13.01 87.7661 12.625 87.8594 12.135C87.9761 11.6217 88.0344 10.8983 88.0344 9.965C88.0344 8.705 87.8944 7.795 87.6144 7.235C87.3344 6.675 86.7744 6.395 85.9344 6.395H85.2694V13.675H85.6194ZM95.8632 31V0.934999H101.883V25.89H108.078V31H95.8632ZM116.949 31.28C114.523 31.28 112.679 30.545 111.419 29.075C110.159 27.5817 109.529 25.4933 109.529 22.81V8.495C109.529 5.905 110.159 3.95667 111.419 2.65C112.679 1.32 114.523 0.654998 116.949 0.654998C119.376 0.654998 121.219 1.32 122.479 2.65C123.739 3.95667 124.369 5.905 124.369 8.495V22.81C124.369 25.5167 123.739 27.605 122.479 29.075C121.219 30.545 119.376 31.28 116.949 31.28ZM116.949 25.75C117.486 25.75 117.848 25.5167 118.034 25.05C118.221 24.5833 118.314 23.93 118.314 23.09V8.39C118.314 7.73667 118.221 7.21167 118.034 6.815C117.871 6.395 117.521 6.185 116.984 6.185C115.981 6.185 115.479 6.94333 115.479 8.46V23.125C115.479 23.9883 115.584 24.6417 115.794 25.085C116.004 25.5283 116.389 25.75 116.949 25.75ZM125.991 31L128.896 0.934999H139.081L141.951 31H136.246L135.826 26.135H132.186L131.836 31H125.991ZM132.641 21.34H135.371L134.041 6.045H133.761L132.641 21.34ZM143.783 0.934999H152.078C154.225 0.934999 155.835 1.53 156.908 2.72C157.981 3.91 158.53 5.67167 158.553 8.005L158.623 22.075C158.646 25.0383 158.133 27.2667 157.083 28.76C156.033 30.2533 154.295 31 151.868 31H143.783V0.934999ZM150.888 25.68C151.985 25.68 152.533 25.1433 152.533 24.07V8.565C152.533 7.88833 152.475 7.38667 152.358 7.06C152.265 6.71 152.078 6.47666 151.798 6.36C151.518 6.24333 151.086 6.185 150.503 6.185H149.838V25.68H150.888Z" fill="#F57421"/>
<path d="M4.33 31H3.33V32H4.33V31ZM4.33 0.934999V-0.065001H3.33V0.934999H4.33ZM16.37 0.934999H17.37V-0.065001H16.37V0.934999ZM16.37 6.78V7.78H17.37V6.78H16.37ZM10.385 6.78V5.78H9.385V6.78H10.385ZM10.385 11.575H9.385V12.575H10.385V11.575ZM16.055 11.575H17.055V10.575H16.055V11.575ZM16.055 17.35V18.35H17.055V17.35H16.055ZM10.385 17.35V16.35H9.385V17.35H10.385ZM10.385 31V32H11.385V31H10.385ZM5.33 31V0.934999H3.33V31H5.33ZM4.33 1.935H16.37V-0.065001H4.33V1.935ZM15.37 0.934999V6.78H17.37V0.934999H15.37ZM16.37 5.78H10.385V7.78H16.37V5.78ZM9.385 6.78V11.575H11.385V6.78H9.385ZM10.385 12.575H16.055V10.575H10.385V12.575ZM15.055 11.575V17.35H17.055V11.575H15.055ZM16.055 16.35H10.385V18.35H16.055V16.35ZM9.385 17.35V31H11.385V17.35H9.385ZM10.385 30H4.33V32H10.385V30ZM18.0295 31H17.0295V32H18.0295V31ZM18.0295 0.934999V-0.065001H17.0295V0.934999H18.0295ZM23.8395 0.934999H24.8395V-0.065001H23.8395V0.934999ZM23.8395 31V32H24.8395V31H23.8395ZM19.0295 31V0.934999H17.0295V31H19.0295ZM18.0295 1.935H23.8395V-0.065001H18.0295V1.935ZM22.8395 0.934999V31H24.8395V0.934999H22.8395ZM23.8395 30H18.0295V32H23.8395V30ZM26.2392 31H25.2392V32H26.2392V31ZM26.2392 0.934999V-0.065001H25.2392V0.934999H26.2392ZM32.2592 0.934999H33.2592V-0.065001H32.2592V0.934999ZM32.2592 25.89H31.2592V26.89H32.2592V25.89ZM38.4542 25.89H39.4542V24.89H38.4542V25.89ZM38.4542 31V32H39.4542V31H38.4542ZM27.2392 31V0.934999H25.2392V31H27.2392ZM26.2392 1.935H32.2592V-0.065001H26.2392V1.935ZM31.2592 0.934999V25.89H33.2592V0.934999H31.2592ZM32.2592 26.89H38.4542V24.89H32.2592V26.89ZM37.4542 25.89V31H39.4542V25.89H37.4542ZM38.4542 30H26.2392V32H38.4542V30ZM40.1503 31H39.1503V32H40.1503V31ZM40.1503 0.934999V-0.065001H39.1503V0.934999H40.1503ZM52.1903 0.934999H53.1903V-0.065001H52.1903V0.934999ZM52.1903 6.745V7.745H53.1903V6.745H52.1903ZM46.2753 6.745V5.745H45.2753V6.745H46.2753ZM46.2753 12.59H45.2753V13.59H46.2753V12.59ZM51.9453 12.59H52.9453V11.59H51.9453V12.59ZM51.9453 18.26V19.26H52.9453V18.26H51.9453ZM46.2753 18.26V17.26H45.2753V18.26H46.2753ZM46.2753 25.155H45.2753V26.155H46.2753V25.155ZM52.5753 25.155H53.5753V24.155H52.5753V25.155ZM52.5753 31V32H53.5753V31H52.5753ZM41.1503 31V0.934999H39.1503V31H41.1503ZM40.1503 1.935H52.1903V-0.065001H40.1503V1.935ZM51.1903 0.934999V6.745H53.1903V0.934999H51.1903ZM52.1903 5.745H46.2753V7.745H52.1903V5.745ZM45.2753 6.745V12.59H47.2753V6.745H45.2753ZM46.2753 13.59H51.9453V11.59H46.2753V13.59ZM50.9453 12.59V18.26H52.9453V12.59H50.9453ZM51.9453 17.26H46.2753V19.26H51.9453V17.26ZM45.2753 18.26V25.155H47.2753V18.26H45.2753ZM46.2753 26.155H52.5753V24.155H46.2753V26.155ZM51.5753 25.155V31H53.5753V25.155H51.5753ZM52.5753 30H40.1503V32H52.5753V30ZM64.2123 29.18L63.4503 29.8277L63.4566 29.8349L64.2123 29.18ZM62.4273 0.934999V-0.065001H61.4273V0.934999H62.4273ZM68.2723 0.934999H69.2723V-0.065001H68.2723V0.934999ZM70.9323 24.98L71.8722 25.3218L71.8768 25.3085L70.9323 24.98ZM71.2123 0.934999V-0.065001H70.2123V0.934999H71.2123ZM77.0573 0.934999H78.0573V-0.065001H77.0573V0.934999ZM75.2373 29.18L74.4815 28.525L74.4753 28.5324L75.2373 29.18ZM69.7423 30.28C67.4562 30.28 65.9331 29.6387 64.968 28.5251L63.4566 29.8349C64.9181 31.5213 67.0816 32.28 69.7423 32.28V30.28ZM64.9742 28.5324C63.9985 27.3844 63.4273 25.5803 63.4273 22.95H61.4273C61.4273 25.8264 62.0461 28.1756 63.4503 29.8276L64.9742 28.5324ZM63.4273 22.95V0.934999H61.4273V22.95H63.4273ZM62.4273 1.935H68.2723V-0.065001H62.4273V1.935ZM67.2723 0.934999V22.705H69.2723V0.934999H67.2723ZM67.2723 22.705C67.2723 23.708 67.3677 24.5833 67.6078 25.2735L69.4968 24.6165C69.3635 24.2334 69.2723 23.6154 69.2723 22.705H67.2723ZM67.6078 25.2735C67.7583 25.7063 68.021 26.1007 68.4295 26.377C68.8324 26.6496 69.2924 26.75 69.7423 26.75V24.75C69.6636 24.75 69.6134 24.7412 69.585 24.7336C69.571 24.7299 69.5621 24.7264 69.5572 24.7242C69.5525 24.7221 69.5504 24.7207 69.5501 24.7205C69.5498 24.7203 69.5495 24.7201 69.5488 24.7194C69.5481 24.7187 69.5455 24.7161 69.5414 24.7104C69.5333 24.6992 69.5159 24.6714 69.4968 24.6165L67.6078 25.2735ZM69.7423 26.75C70.1842 26.75 70.6377 26.6561 71.038 26.3971C71.4469 26.1325 71.7164 25.7498 71.8721 25.3217L69.9925 24.6383C69.9756 24.6847 69.961 24.7062 69.9558 24.713C69.9544 24.7149 69.9534 24.7161 69.9528 24.7168C69.9522 24.7174 69.9518 24.7177 69.9518 24.7178C69.9518 24.7178 69.9518 24.7177 69.9519 24.7177C69.952 24.7176 69.9519 24.7177 69.9515 24.7179C69.9515 24.718 69.9407 24.7252 69.9101 24.7331C69.8781 24.7413 69.8242 24.75 69.7423 24.75V26.75ZM71.8768 25.3085C72.1175 24.6165 72.2123 23.7281 72.2123 22.705H70.2123C70.2123 23.6419 70.1204 24.2702 69.9878 24.6515L71.8768 25.3085ZM72.2123 22.705V0.934999H70.2123V22.705H72.2123ZM71.2123 1.935H77.0573V-0.065001H71.2123V1.935ZM76.0573 0.934999V22.95H78.0573V0.934999H76.0573ZM76.0573 22.95C76.0573 25.5764 75.4762 27.3775 74.4816 28.5251L75.993 29.8349C77.425 28.1825 78.0573 25.8303 78.0573 22.95H76.0573ZM74.4753 28.5324C73.5353 29.6383 72.0296 30.28 69.7423 30.28V32.28C72.4016 32.28 74.5592 31.5217 75.9992 29.8276L74.4753 28.5324ZM79.3544 0.934999V-0.065001H78.3544V0.934999H79.3544ZM92.4444 3.28L91.6085 3.82894L91.6124 3.8347L92.4444 3.28ZM92.6194 16.825L91.7619 16.3105L91.7619 16.3105L92.6194 16.825ZM85.2694 19.1V18.1H84.2694V19.1H85.2694ZM85.2694 31V32H86.2694V31H85.2694ZM79.3544 31H78.3544V32H79.3544V31ZM87.1944 13.29L87.8123 14.0763L87.8191 14.0709L87.1944 13.29ZM87.8594 12.135L86.8843 11.9134L86.8804 11.9306L86.8771 11.9479L87.8594 12.135ZM85.2694 6.395V5.395H84.2694V6.395H85.2694ZM85.2694 13.675H84.2694V14.675H85.2694V13.675ZM79.3544 1.935H87.2994V-0.065001H79.3544V1.935ZM87.2994 1.935C89.474 1.935 90.8191 2.62687 91.6085 3.82893L93.2803 2.73107C92.0164 0.806463 89.9315 -0.065001 87.2994 -0.065001V1.935ZM91.6124 3.8347C92.4811 5.13787 92.9844 7.17039 92.9844 10.07H94.9844C94.9844 6.99628 94.461 4.50212 93.2765 2.7253L91.6124 3.8347ZM92.9844 10.07C92.9844 12.9858 92.5347 15.0225 91.7619 16.3105L93.4769 17.3395C94.5241 15.5942 94.9844 13.1275 94.9844 10.07H92.9844ZM91.7619 16.3105C91.0915 17.4278 89.8568 18.1 87.7194 18.1V20.1C90.2953 20.1 92.3273 19.2555 93.4769 17.3395L91.7619 16.3105ZM87.7194 18.1H85.2694V20.1H87.7194V18.1ZM84.2694 19.1V31H86.2694V19.1H84.2694ZM85.2694 30H79.3544V32H85.2694V30ZM80.3544 31V0.934999H78.3544V31H80.3544ZM85.6194 14.675C86.4177 14.675 87.22 14.5416 87.8122 14.0763L86.5766 12.5037C86.5155 12.5517 86.2678 12.675 85.6194 12.675V14.675ZM87.8191 14.0709C88.3766 13.6249 88.7092 13.018 88.8418 12.3221L86.8771 11.9479C86.823 12.232 86.7122 12.3951 86.5697 12.5091L87.8191 14.0709ZM88.8345 12.3566C88.9757 11.7354 89.0344 10.9251 89.0344 9.965H87.0344C87.0344 10.8716 86.9764 11.508 86.8843 11.9134L88.8345 12.3566ZM89.0344 9.965C89.0344 8.67629 88.8986 7.5673 88.5088 6.78779L86.72 7.68221C86.8902 8.0227 87.0344 8.73371 87.0344 9.965H89.0344ZM88.5088 6.78779C88.0011 5.77226 87.0022 5.395 85.9344 5.395V7.395C86.5467 7.395 86.6677 7.57773 86.72 7.68221L88.5088 6.78779ZM85.9344 5.395H85.2694V7.395H85.9344V5.395ZM84.2694 6.395V13.675H86.2694V6.395H84.2694ZM85.2694 14.675H85.6194V12.675H85.2694V14.675ZM95.8632 31H94.8632V32H95.8632V31ZM95.8632 0.934999V-0.065001H94.8632V0.934999H95.8632ZM101.883 0.934999H102.883V-0.065001H101.883V0.934999ZM101.883 25.89H100.883V26.89H101.883V25.89ZM108.078 25.89H109.078V24.89H108.078V25.89ZM108.078 31V32H109.078V31H108.078ZM96.8632 31V0.934999H94.8632V31H96.8632ZM95.8632 1.935H101.883V-0.065001H95.8632V1.935ZM100.883 0.934999V25.89H102.883V0.934999H100.883ZM101.883 26.89H108.078V24.89H101.883V26.89ZM107.078 25.89V31H109.078V25.89H107.078ZM108.078 30H95.8632V32H108.078V30ZM111.419 29.075L110.655 29.7199L110.66 29.7258L111.419 29.075ZM111.419 2.65L112.139 3.34416L112.145 3.33774L111.419 2.65ZM122.479 2.65L121.753 3.33777L121.759 3.34413L122.479 2.65ZM122.479 29.075L123.239 29.7258L123.239 29.7258L122.479 29.075ZM118.034 25.05L118.963 25.4214L118.963 25.4214L118.034 25.05ZM118.034 6.815L117.102 7.17744L117.115 7.20959L117.13 7.24079L118.034 6.815ZM115.794 25.085L116.698 24.6569L116.698 24.6569L115.794 25.085ZM116.949 30.28C114.735 30.28 113.202 29.6182 112.179 28.4242L110.66 29.7258C112.157 31.4718 114.311 32.28 116.949 32.28V30.28ZM112.184 28.4301C111.124 27.1746 110.529 25.3452 110.529 22.81H108.529C108.529 25.6415 109.194 27.9887 110.655 29.7199L112.184 28.4301ZM110.529 22.81V8.495H108.529V22.81H110.529ZM110.529 8.495C110.529 6.05317 111.123 4.39757 112.139 3.34413L110.699 1.95586C109.195 3.51576 108.529 5.75683 108.529 8.495H110.529ZM112.145 3.33774C113.161 2.26584 114.704 1.655 116.949 1.655V-0.345002C114.341 -0.345002 112.198 0.374154 110.693 1.96225L112.145 3.33774ZM116.949 1.655C119.194 1.655 120.738 2.26584 121.753 3.33774L123.205 1.96225C121.701 0.374154 119.558 -0.345002 116.949 -0.345002V1.655ZM121.759 3.34413C122.775 4.39757 123.369 6.05317 123.369 8.495H125.369C125.369 5.75683 124.703 3.51577 123.199 1.95586L121.759 3.34413ZM123.369 8.495V22.81H125.369V8.495H123.369ZM123.369 22.81C123.369 25.3723 122.773 27.1961 121.72 28.4242L123.239 29.7258C124.706 28.0139 125.369 25.661 125.369 22.81H123.369ZM121.72 28.4242C120.697 29.6182 119.164 30.28 116.949 30.28V32.28C119.588 32.28 121.742 31.4718 123.239 29.7258L121.72 28.4242ZM116.949 26.75C117.363 26.75 117.787 26.6593 118.165 26.4153C118.548 26.1682 118.806 25.814 118.963 25.4214L117.106 24.6786C117.09 24.7185 117.077 24.7357 117.074 24.7396C117.072 24.7423 117.075 24.7387 117.081 24.7347C117.097 24.7241 117.073 24.75 116.949 24.75V26.75ZM118.963 25.4214C119.218 24.7833 119.314 23.9833 119.314 23.09H117.314C117.314 23.8767 117.224 24.3834 117.106 24.6786L118.963 25.4214ZM119.314 23.09V8.39H117.314V23.09H119.314ZM119.314 8.39C119.314 7.65544 119.212 6.96807 118.939 6.3892L117.13 7.24079C117.23 7.45526 117.314 7.81789 117.314 8.39H119.314ZM118.966 6.45255C118.813 6.05857 118.549 5.71611 118.164 5.48501C117.792 5.26178 117.378 5.185 116.984 5.185V7.185C117.127 7.185 117.157 7.21321 117.135 7.19999C117.123 7.19316 117.111 7.18252 117.102 7.17105C117.093 7.16048 117.095 7.1593 117.102 7.17744L118.966 6.45255ZM116.984 5.185C116.188 5.185 115.479 5.51039 115.022 6.20201C114.612 6.82114 114.479 7.62311 114.479 8.46H116.479C116.479 7.78022 116.598 7.44469 116.69 7.30548C116.727 7.24932 116.756 7.23048 116.776 7.22022C116.8 7.20796 116.86 7.185 116.984 7.185V5.185ZM114.479 8.46V23.125H116.479V8.46H114.479ZM114.479 23.125C114.479 24.0403 114.586 24.8701 114.891 25.5131L116.698 24.6569C116.583 24.4132 116.479 23.9363 116.479 23.125H114.479ZM114.891 25.5131C115.073 25.8987 115.354 26.2274 115.742 26.4504C116.121 26.6686 116.539 26.75 116.949 26.75V24.75C116.8 24.75 116.746 24.7206 116.74 24.7171C116.736 24.715 116.734 24.7133 116.73 24.7091C116.726 24.7043 116.714 24.6895 116.698 24.6569L114.891 25.5131ZM125.991 31L124.995 30.9038L124.89 32H125.991V31ZM128.896 0.934999V-0.065001H127.988L127.9 0.838823L128.896 0.934999ZM139.081 0.934999L140.076 0.839971L139.99 -0.065001H139.081V0.934999ZM141.951 31V32H143.051L142.946 30.905L141.951 31ZM136.246 31L135.25 31.086L135.328 32H136.246V31ZM135.826 26.135L136.822 26.049L136.743 25.135H135.826V26.135ZM132.186 26.135V25.135H131.255L131.188 26.0632L132.186 26.135ZM131.836 31V32H132.766L132.833 31.0718L131.836 31ZM132.641 21.34L131.643 21.267L131.565 22.34H132.641V21.34ZM135.371 21.34V22.34H136.462L136.367 21.2534L135.371 21.34ZM134.041 6.045L135.037 5.95837L134.958 5.045H134.041V6.045ZM133.761 6.045V5.045H132.831L132.763 5.97197L133.761 6.045ZM126.986 31.0962L129.891 1.03118L127.9 0.838823L124.995 30.9038L126.986 31.0962ZM128.896 1.935H139.081V-0.065001H128.896V1.935ZM138.085 1.03003L140.955 31.095L142.946 30.905L140.076 0.839971L138.085 1.03003ZM141.951 30H136.246V32H141.951V30ZM137.242 30.914L136.822 26.049L134.83 26.221L135.25 31.086L137.242 30.914ZM135.826 25.135H132.186V27.135H135.826V25.135ZM131.188 26.0632L130.838 30.9282L132.833 31.0718L133.183 26.2068L131.188 26.0632ZM131.836 30H125.991V32H131.836V30ZM132.641 22.34H135.371V20.34H132.641V22.34ZM136.367 21.2534L135.037 5.95837L133.045 6.13163L134.375 21.4266L136.367 21.2534ZM134.041 5.045H133.761V7.045H134.041V5.045ZM132.763 5.97197L131.643 21.267L133.638 21.413L134.758 6.11803L132.763 5.97197ZM143.783 0.934999V-0.065001H142.783V0.934999H143.783ZM158.553 8.005L159.553 8.00002L159.553 7.995L158.553 8.005ZM158.623 22.075L157.623 22.08L157.623 22.0829L158.623 22.075ZM157.083 28.76L156.265 28.1848L156.265 28.1848L157.083 28.76ZM143.783 31H142.783V32H143.783V31ZM152.358 7.06L151.392 7.31766L151.403 7.3575L151.416 7.39634L152.358 7.06ZM149.838 6.185V5.185H148.838V6.185H149.838ZM149.838 25.68H148.838V26.68H149.838V25.68ZM143.783 1.935H152.078V-0.065001H143.783V1.935ZM152.078 1.935C154.042 1.935 155.34 2.47473 156.166 3.38977L157.651 2.05023C156.329 0.58527 154.407 -0.065001 152.078 -0.065001V1.935ZM156.166 3.38977C157.015 4.33124 157.531 5.81636 157.553 8.015L159.553 7.995C159.528 5.52697 158.948 3.48876 157.651 2.05023L156.166 3.38977ZM157.553 8.00997L157.623 22.08L159.623 22.07L159.553 8.00002L157.553 8.00997ZM157.623 22.0829C157.646 24.9567 157.141 26.9388 156.265 28.1848L157.901 29.3352C159.125 27.5945 159.647 25.12 159.623 22.0671L157.623 22.0829ZM156.265 28.1848C155.461 29.3282 154.087 30 151.868 30V32C154.503 32 156.605 31.1785 157.901 29.3352L156.265 28.1848ZM151.868 30H143.783V32H151.868V30ZM144.783 31V0.934999H142.783V31H144.783ZM150.888 26.68C151.585 26.68 152.293 26.5094 152.821 25.9922C153.354 25.471 153.533 24.7663 153.533 24.07H151.533C151.533 24.447 151.438 24.5473 151.422 24.5628C151.403 24.5822 151.288 24.68 150.888 24.68V26.68ZM153.533 24.07V8.565H151.533V24.07H153.533ZM153.533 8.565C153.533 7.86125 153.476 7.21786 153.3 6.72366L151.416 7.39634C151.473 7.55548 151.533 7.91541 151.533 8.565H153.533ZM153.324 6.80234C153.168 6.21756 152.807 5.69683 152.183 5.43692L151.414 7.28308C151.41 7.28159 151.401 7.27739 151.391 7.26937C151.38 7.26131 151.372 7.25306 151.367 7.24719C151.358 7.23527 151.374 7.24873 151.392 7.31766L153.324 6.80234ZM152.183 5.43692C151.714 5.24171 151.119 5.185 150.503 5.185V7.185C151.054 7.185 151.322 7.24495 151.414 7.28308L152.183 5.43692ZM150.503 5.185H149.838V7.185H150.503V5.185ZM148.838 6.185V25.68H150.838V6.185H148.838ZM149.838 26.68H150.888V24.68H149.838V26.68Z" fill="white" fill-opacity="0.51"/>
</g>
<defs>
<filter id="filter0_d" x="0.329956" y="0.655029" width="162.294" height="38.625" filterUnits="userSpaceOnUse" color-interpolation-filters="sRGB">
<feFlood flood-opacity="0" result="BackgroundImageFix"/>
<feColorMatrix in="SourceAlpha" type="matrix" values="0 0 0 0 0 0 0 0 0 0 0 0 0 0 0 0 0 0 127 0"/>
<feOffset dy="4"/>
<feGaussianBlur stdDeviation="2"/>
<feColorMatrix type="matrix" values="0 0 0 0 0 0 0 0 0 0 0 0 0 0 0 0 0 0 0.25 0"/>
<feBlend mode="normal" in2="BackgroundImageFix" result="effect1_dropShadow"/>
<feBlend mode="normal" in="SourceGraphic" in2="effect1_dropShadow" result="shape"/>
</filter>
</defs>
</svg>
